<svg width="193" height="24" viewBox="0 0 193 24" fill="none" xmlns="http://www.w3.org/2000/svg">
<path d="M10.5149 6.63637V10.0455H0.660522V6.63637H10.5149ZM2.89774 2.71591H7.43609V17.9716C7.43609 18.3906 7.50001 18.7173 7.62785 18.9517C7.75569 19.179 7.93325 19.3388 8.16052 19.4311C8.3949 19.5234 8.66478 19.5696 8.97018 19.5696C9.18325 19.5696 9.39632 19.5519 9.60939 19.5163C9.82245 19.4737 9.98581 19.4418 10.0994 19.4205L10.8132 22.7976C10.5859 22.8686 10.2663 22.9503 9.85441 23.0426C9.44248 23.1421 8.94177 23.2024 8.35228 23.2237C7.25853 23.2663 6.29973 23.1207 5.47586 22.7869C4.6591 22.4531 4.02345 21.9347 3.5689 21.2315C3.11436 20.5284 2.89064 19.6406 2.89774 18.5682V2.71591Z" fill="#31324B"/>
<path d="M18.3612 13.5398V23H13.8228V1.18182H18.2333V9.52344H18.4251C18.7944 8.55753 19.391 7.80114 20.2149 7.25427C21.0387 6.70029 22.0721 6.4233 23.315 6.4233C24.4514 6.4233 25.4421 6.67188 26.2873 7.16904C27.1396 7.6591 27.8001 8.36577 28.2688 9.28907C28.7447 10.2053 28.9791 11.3026 28.972 12.581V23H24.4336V13.3906C24.4407 12.3821 24.185 11.5973 23.6666 11.0362C23.1552 10.4751 22.4379 10.1946 21.5146 10.1946C20.8967 10.1946 20.3498 10.326 19.8739 10.5888C19.4052 10.8516 19.0359 11.2351 18.766 11.7394C18.5032 12.2365 18.3683 12.8367 18.3612 13.5398Z" fill="#31324B"/>
<path d="M40.0009 23.3196C38.3177 23.3196 36.8688 22.9787 35.6543 22.2969C34.4469 21.608 33.5165 20.635 32.8631 19.3778C32.2097 18.1136 31.883 16.6186 31.883 14.8928C31.883 13.2095 32.2097 11.7323 32.8631 10.4609C33.5165 9.18964 34.4363 8.19887 35.6223 7.48864C36.8155 6.77841 38.2147 6.4233 39.8198 6.4233C40.8993 6.4233 41.9043 6.59731 42.8347 6.94532C43.7722 7.28623 44.589 7.80114 45.285 8.49006C45.9881 9.17898 46.535 10.0455 46.9256 11.0895C47.3162 12.1264 47.5116 13.3409 47.5116 14.733V15.9794H33.6941V13.1669H43.2395C43.2395 12.5135 43.0975 11.9347 42.8134 11.4304C42.5293 10.9261 42.1351 10.532 41.6309 10.2479C41.1337 9.95668 40.5549 9.81109 39.8944 9.81109C39.2054 9.81109 38.5946 9.97089 38.062 10.2905C37.5364 10.603 37.1245 11.0256 36.8262 11.5582C36.5279 12.0838 36.3752 12.6698 36.3681 13.3161V15.9901C36.3681 16.7997 36.5172 17.4993 36.8155 18.0888C37.1209 18.6783 37.5506 19.1328 38.1046 19.4524C38.6586 19.772 39.3155 19.9318 40.0755 19.9318C40.5797 19.9318 41.0414 19.8608 41.4604 19.7188C41.8794 19.5767 42.2381 19.3636 42.5364 19.0796C42.8347 18.7955 43.062 18.4474 43.2182 18.0355L47.4157 18.3125C47.2026 19.321 46.7658 20.2017 46.1053 20.9546C45.4519 21.7003 44.6067 22.2827 43.5698 22.7017C42.54 23.1136 41.3503 23.3196 40.0009 23.3196Z" fill="#31324B"/>
<path d="M57.9275 23.554C56.5213 23.554 55.3139 23.0568 54.3054 22.0625C53.3111 21.054 52.8139 19.8466 52.8139 18.4403C52.8139 17.0483 53.3111 15.8551 54.3054 14.8608C55.3139 13.8665 56.5213 13.3693 57.9275 13.3693C59.2912 13.3693 60.4844 13.8665 61.5071 14.8608C62.5298 15.8551 63.0412 17.0483 63.0412 18.4403C63.0412 19.3778 62.7997 20.2372 62.3167 21.0185C61.848 21.7855 61.2301 22.4034 60.4631 22.8722C59.696 23.3267 58.8508 23.554 57.9275 23.554Z" fill="#FF693B"/>
<path d="M68.4062 23V1.18181H77.8665C79.5284 1.18181 80.924 1.40553 82.0533 1.85298C83.1896 2.30042 84.0455 2.93252 84.6207 3.74928C85.2031 4.56604 85.4943 5.5284 85.4943 6.63636C85.4943 7.43891 85.3168 8.17045 84.9616 8.83096C84.6136 9.49147 84.1236 10.0454 83.4915 10.4929C82.8594 10.9332 82.1207 11.2386 81.2756 11.4091V11.6222C82.2131 11.6577 83.0653 11.8956 83.8324 12.3359C84.5994 12.7692 85.2102 13.3693 85.6648 14.1364C86.1193 14.8963 86.3466 15.7912 86.3466 16.821C86.3466 18.0142 86.0341 19.076 85.4091 20.0064C84.7912 20.9368 83.9105 21.6683 82.767 22.201C81.6236 22.7337 80.2599 23 78.6761 23H68.4062ZM74.3295 18.2699H77.0994C78.0938 18.2699 78.8395 18.0852 79.3366 17.7159C79.8338 17.3395 80.0824 16.7855 80.0824 16.054C80.0824 15.5426 79.9652 15.1094 79.7308 14.7543C79.4964 14.3991 79.1626 14.1293 78.7294 13.9446C78.3033 13.7599 77.7884 13.6676 77.1847 13.6676H74.3295V18.2699ZM74.3295 10.0028H76.7585C77.277 10.0028 77.7351 9.92116 78.1328 9.7578C78.5305 9.59445 78.8395 9.36008 79.0597 9.05468C79.2869 8.74218 79.4006 8.36221 79.4006 7.91476C79.4006 7.24005 79.1591 6.72513 78.6761 6.37002C78.1932 6.00781 77.5824 5.8267 76.8438 5.8267H74.3295V10.0028Z" fill="#31324B"/>
<path d="M101.357 1.18181H107.281V15.1591C107.281 16.821 106.883 18.2592 106.087 19.4737C105.299 20.6811 104.198 21.615 102.785 22.2756C101.371 22.929 99.7308 23.2557 97.8629 23.2557C95.9808 23.2557 94.3331 22.929 92.9197 22.2756C91.5064 21.615 90.4055 20.6811 89.6172 19.4737C88.8359 18.2592 88.4453 16.821 88.4453 15.1591V1.18181H94.3686V14.6477C94.3686 15.3224 94.5178 15.9261 94.8161 16.4588C95.1143 16.9844 95.5263 17.3963 96.0518 17.6946C96.5845 17.9929 97.1882 18.142 97.8629 18.142C98.5447 18.142 99.1484 17.9929 99.674 17.6946C100.2 17.3963 100.612 16.9844 100.91 16.4588C101.208 15.9261 101.357 15.3224 101.357 14.6477V1.18181Z" fill="#31324B"/>
<path d="M118.491 23H110.096V1.18181H118.405C120.65 1.18181 122.589 1.6186 124.222 2.49218C125.863 3.35866 127.127 4.60866 128.015 6.24218C128.91 7.8686 129.357 9.81817 129.357 12.0909C129.357 14.3636 128.913 16.3168 128.025 17.9503C127.138 19.5767 125.881 20.8267 124.254 21.7003C122.628 22.5668 120.706 23 118.491 23ZM116.019 17.9716H118.278C119.357 17.9716 120.277 17.7976 121.037 17.4496C121.804 17.1016 122.386 16.5014 122.784 15.6491C123.189 14.7969 123.391 13.6108 123.391 12.0909C123.391 10.571 123.185 9.38494 122.773 8.53266C122.368 7.68039 121.772 7.08025 120.983 6.73224C120.202 6.38422 119.243 6.21022 118.107 6.21022H116.019V17.9716Z" fill="#31324B"/>
<path d="M146.267 8.38351C146.174 8.00709 146.029 7.67684 145.83 7.39275C145.631 7.10155 145.382 6.85653 145.084 6.65766C144.793 6.4517 144.452 6.299 144.061 6.19956C143.678 6.09303 143.255 6.03976 142.794 6.03976C141.799 6.03976 140.951 6.27769 140.248 6.75354C139.551 7.2294 139.019 7.91477 138.65 8.80965C138.287 9.70454 138.106 10.7841 138.106 12.0483C138.106 13.3267 138.28 14.4204 138.628 15.3295C138.976 16.2386 139.495 16.9347 140.184 17.4176C140.873 17.9006 141.728 18.142 142.751 18.142C143.653 18.142 144.402 18.0106 144.999 17.7479C145.603 17.4851 146.054 17.1122 146.352 16.6293C146.65 16.1463 146.799 15.5781 146.799 14.9247L147.822 15.0312H142.836V10.8125H152.51V13.8381C152.51 15.8267 152.087 17.5277 151.242 18.941C150.404 20.3473 149.246 21.4268 147.769 22.1797C146.299 22.9254 144.612 23.2983 142.708 23.2983C140.585 23.2983 138.721 22.8473 137.115 21.9453C135.51 21.0433 134.257 19.7578 133.355 18.0888C132.46 16.4197 132.012 14.4347 132.012 12.1335C132.012 10.3295 132.286 8.73153 132.833 7.33948C133.387 5.94744 134.154 4.77201 135.134 3.8132C136.114 2.84729 137.247 2.11931 138.532 1.62925C139.818 1.13209 141.196 0.883514 142.666 0.883514C143.958 0.883514 145.159 1.06817 146.267 1.43749C147.382 1.79971 148.365 2.31817 149.218 2.99289C150.077 3.6605 150.77 4.45241 151.295 5.3686C151.821 6.28479 152.14 7.28976 152.254 8.38351H146.267Z" fill="#31324B"/>
<path d="M155.271 23V1.18181H170.996V5.95454H161.195V9.70454H170.186V14.4773H161.195V18.2273H170.953V23H155.271Z" fill="#31324B"/>
<path d="M173.337 5.95454V1.18181H192.3V5.95454H185.738V23H179.9V5.95454H173.337Z" fill="#31324B"/>
</svg>
